<svg width="135" height="22" viewBox="0 0 135 22" fill="none" xmlns="http://www.w3.org/2000/svg">
<path d="M10.5723 16.0877L4.35842 19.5659L5.74603 12.5812L0.517151 7.74613L7.58913 6.90739L10.5723 0.440674L13.5554 6.90739L20.6274 7.74613L15.3985 12.5812L16.7861 19.5659L10.5723 16.0877Z" fill="#FEC63E"/>
<g clip-path="url(#clip0)">
<path d="M39.0361 16.0877L32.8223 19.5659L34.2099 12.5812L28.981 7.74613L36.053 6.90739L39.0361 0.440674L42.0193 6.90739L49.0913 7.74613L43.8624 12.5812L45.25 19.5659L39.0361 16.0877Z" fill="#FEC63E"/>
</g>
<path d="M67.5 16.0877L61.2861 19.5659L62.6737 12.5812L57.4449 7.74613L64.5168 6.90739L67.5 0.440674L70.4831 6.90739L77.5551 7.74613L72.3262 12.5812L73.7139 19.5659L67.5 16.0877Z" fill="#FEC63E"/>
<g clip-path="url(#clip1)">
<path d="M95.9639 16.9009L89.75 20.3792L91.1376 13.3944L85.9087 8.55936L92.9807 7.72062L95.9639 1.25391L98.947 7.72062L106.019 8.55936L100.79 13.3944L102.178 20.3792L95.9639 16.9009Z" fill="#FEC63E"/>
</g>
<g clip-path="url(#clip2)">
<path d="M124.428 16.9009L118.214 20.3792L119.601 13.3944L114.373 8.55936L121.445 7.72062L124.428 1.25391L127.411 7.72062L134.483 8.55936L129.254 13.3944L130.642 20.3792L124.428 16.9009Z" fill="#FEC63E"/>
</g>
<defs>
<clipPath id="clip0">
<rect width="21.1446" height="21.1446" fill="white" transform="translate(28.4639)"/>
</clipPath>
<clipPath id="clip1">
<rect width="21.1446" height="21.1446" fill="white" transform="translate(85.3916 0.813232)"/>
</clipPath>
<clipPath id="clip2">
<rect width="21.1446" height="21.1446" fill="white" transform="translate(113.855 0.813232)"/>
</clipPath>
</defs>
</svg>
