<svg width="30" height="30" viewBox="0 0 40 40" fill="none" xmlns="http://www.w3.org/2000/svg">
<circle cx="20" cy="20" r="20" fill="#181717"/>
<path d="M2.81378 30.2351C5.24842 34.3138 9.09424 37.4526 13.6775 38.9785C14.6782 39.1614 15.0428 38.5438 15.0428 38.0134C15.0428 37.7939 15.0391 37.4058 15.0342 36.8866C15.0285 36.2853 15.0211 35.5079 15.0158 34.6125C9.45272 35.8206 8.27896 31.931 8.27896 31.931C7.36917 29.6215 6.0579 29.0064 6.0579 29.0064C4.242 27.7651 6.19541 27.7897 6.19541 27.7897C8.20284 27.9321 9.25873 29.8511 9.25873 29.8511C11.0427 32.9071 13.9403 32.0243 15.0797 31.5135C15.2614 30.2207 15.777 29.3391 16.3492 28.8394C11.9083 28.3348 7.23902 26.6184 7.23902 18.9545C7.23902 16.7715 8.01867 14.9863 9.29802 13.5879C9.09175 13.082 8.40542 11.0488 9.49324 8.29491C9.49324 8.29491 11.1728 7.75714 14.9937 10.3453C16.5886 9.90208 18.3001 9.67985 20.0006 9.67249C21.6986 9.67985 23.4102 9.90208 25.0075 10.3453C28.8259 7.75714 30.5019 8.29491 30.5019 8.29491C31.5934 11.0488 30.907 13.082 30.7008 13.5879C31.9826 14.9863 32.7573 16.7715 32.7573 18.9545C32.7573 26.638 28.0807 28.3287 23.625 28.8235C24.3433 29.441 24.983 30.6615 24.983 32.5277C24.983 34.3153 24.972 35.8722 24.9647 36.9036C24.9611 37.4144 24.9584 37.7963 24.9584 38.0134C24.9584 38.5488 25.3182 39.1712 26.3335 38.976C29.9847 37.7573 33.1674 35.5155 35.5406 32.5904C31.8737 37.1109 26.2743 40 20 40C12.6946 40 6.30409 36.0832 2.81378 30.2351Z" fill="white"/>
</svg>
