<svg width="88" height="88" viewBox="0 0 88 88" fill="none" xmlns="http://www.w3.org/2000/svg">
<circle cx="44" cy="44" r="44" fill="#41115F"/>
<path d="M33.1506 48.6712C33.1506 43.3451 37.4683 39.0274 42.7945 39.0274H45.2808C52.5626 39.0274 58.4657 44.9305 58.4657 52.2123L57.5616 52.8904L58.4657 54.3219L58.0136 58.6917L58.4657 68.4109L57.4863 69.089L57.3356 69.5411H56.8082L55.5273 70.2945L54.6986 70.8219L33.1506 68.4109V48.6712Z" fill="#929292"/>
<path d="M29.3838 51.8049C29.3838 44.7481 35.1045 39.0274 42.1613 39.0274C49.1237 39.0274 54.8045 44.6015 54.9365 51.5627L55.0002 54.9246L54.3975 61.1781L53.6441 61.4041L54.3975 62.8733L54.6989 70.8219L53.5687 70.9726L53.0413 70.5959L52.4386 70.9726L50.555 70.8219L47.692 70.2192L36.918 69.0137H32.0961L29.3838 68.4109L29.8358 60.726L29.6852 57.863L30.1372 57.5616L29.5345 55.6027L29.3838 53.7192V51.8049Z" fill="#C4C4C4"/>
<g filter="url(#filter0_i)">
<path d="M34.0544 51.952C34.0544 47.6434 37.5472 44.1507 41.8558 44.1507C46.0723 44.1507 49.5258 47.5011 49.6535 51.7157L49.7257 54.0959L49.4243 58.7671L50.1777 66.6027L41.664 65.2466H34.0544L34.5065 59.9726L34.0544 54.6986V51.952Z" fill="#B0B0B0"/>
</g>
<g filter="url(#filter1_d)">
<path d="M38.5782 54.5742H38.0479V55.9041H37.0684V52.1369H38.6675C39.1494 52.1369 39.5261 52.2361 39.7977 52.4345C40.0694 52.6328 40.2052 52.9131 40.2052 53.2754C40.2052 53.5375 40.1475 53.7549 40.0322 53.9274C39.9187 54.0999 39.7401 54.2396 39.4963 54.3465L40.3447 55.8653V55.9041H39.2954L38.5782 54.5742ZM38.0479 53.873H38.6675C38.8535 53.873 38.9931 53.8282 39.0861 53.7385C39.181 53.6471 39.2284 53.5203 39.2284 53.3582C39.2284 53.196 39.181 53.0692 39.0861 52.9778C38.9912 52.8847 38.8517 52.8381 38.6675 52.8381H38.0479V53.873Z" fill="#C4C4C4"/>
</g>
<g filter="url(#filter2_d)">
<path d="M42.4123 55.9041H41.4355V52.1369H42.4123V55.9041Z" fill="#C4C4C4"/>
</g>
<g filter="url(#filter3_d)">
<path d="M44.6444 54.6259V55.9041H43.6648V52.1369H45.2862C45.5969 52.1369 45.8714 52.1904 46.1095 52.2974C46.3495 52.4026 46.5346 52.5535 46.6649 52.7501C46.797 52.9451 46.863 53.1667 46.863 53.4151C46.863 53.7825 46.7207 54.0766 46.436 54.2974C46.1532 54.5164 45.7644 54.6259 45.2695 54.6259H44.6444ZM44.6444 53.9248H45.2862C45.476 53.9248 45.6202 53.8808 45.7188 53.7928C45.8193 53.7049 45.8695 53.5807 45.8695 53.4203C45.8695 53.2443 45.8183 53.1037 45.716 52.9985C45.6137 52.8933 45.4742 52.8398 45.2974 52.8381H44.6444V53.9248Z" fill="#C4C4C4"/>
</g>
<path d="M46.2733 75.147L54.6689 72.9315L44.5242 73.3979L41.9589 72.9315L32.3972 73.9809L40.3264 74.564L35.8954 75.9632H43.0083L51.5206 76.7795L46.2733 75.147Z" fill="#18052B"/>
<path d="M40.326 74.564L35.895 75.9633H40.326V74.564Z" fill="#270547"/>
<path d="M46.2733 75.147L54.6689 72.9315L44.5242 73.3979V76.1086L46.2733 76.1965V75.147Z" fill="#270547"/>
<path d="M43.9246 30.2123C46.6369 22.3014 53.7191 17.3288 58.9177 15.5959" stroke="white" stroke-opacity="0.5" stroke-width="2" stroke-linecap="round" stroke-linejoin="round" stroke-dasharray="10 10"/>
<path d="M43.5479 31.0411C54.7739 19.5137 72.7054 22.452 76.0958 31.0411" stroke="white" stroke-opacity="0.5" stroke-width="2" stroke-linecap="round" stroke-linejoin="round" stroke-dasharray="10 10"/>
<path d="M45.1301 30.7397C63.589 26.4452 73.6096 41.7397 75.7945 49.5" stroke="white" stroke-opacity="0.5" stroke-width="2" stroke-linecap="round" stroke-linejoin="round" stroke-dasharray="10 10"/>
<path d="M44.4521 31.9452C56.8083 31.9452 67.0549 42.6438 67.0549 62.3082" stroke="white" stroke-opacity="0.5" stroke-width="2" stroke-linecap="round" stroke-linejoin="round" stroke-dasharray="10 10"/>
<path d="M41.2123 30.2123C38.0479 20.3425 29.7602 16.1233 22.9041 15.0685" stroke="white" stroke-opacity="0.5" stroke-width="2" stroke-linecap="round" stroke-linejoin="round" stroke-dasharray="10 10"/>
<path d="M42.7191 31.7192C31.4931 21.9247 15.8972 26.2192 10.0205 33.5274" stroke="white" stroke-opacity="0.5" stroke-width="2" stroke-linecap="round" stroke-linejoin="round" stroke-dasharray="10 10"/>
<path d="M42.5686 33.8288C26.6713 31.5685 12.959 47.9178 11.2261 58.2397" stroke="white" stroke-opacity="0.5" stroke-width="2" stroke-linecap="round" stroke-linejoin="round" stroke-dasharray="10 10"/>
<path d="M19.0178 26.286L21.4106 28.1515C21.769 28.4309 21.8825 28.9106 21.722 29.3239L24.0215 30.2857L23.0761 30.5388L23.0961 31.3356L22.3309 31.2891L22.1352 32.2254L20.8659 30.4235C20.5039 30.6818 20.0096 30.6895 19.6503 30.4094L17.2575 28.5439C16.8832 28.2521 16.776 27.7419 16.9691 27.3169L14.5529 26.3254L15.491 25.9567L15.433 25.1964L16.0919 25.3251L16.1461 24.2122L17.765 26.2997C17.7785 26.2891 17.7923 26.2789 17.8062 26.269C18.1678 26.0135 18.6598 26.0069 19.0178 26.286Z" fill="#0B81EE"/>
<path d="M65.5073 45.8542C65.6387 45.3332 65.4716 44.7658 65.0325 44.4153L63.4096 43.1197C63.0803 42.8569 62.5953 42.917 62.3263 43.2541L61.5144 44.2711C61.2453 44.6081 61.2942 45.0944 61.6234 45.3573L63.2464 46.6528C63.6935 47.0097 64.2973 47.0418 64.7808 46.7834L66.4349 48.9761L66.5045 47.8852L67.1476 48.0164L67.1021 47.2703L68.026 46.9159L65.5073 45.8542Z" fill="#B7CF1F"/>
<rect x="57.7124" y="15.9575" width="3.61644" height="1.9589" rx="0.979452" transform="rotate(-51.9523 57.7124 15.9575)" fill="#D6DA11"/>
<rect x="26.916" y="13.863" width="3.61644" height="1.9589" rx="0.979452" transform="rotate(47.7644 26.916 13.863)" fill="#EE8913"/>
<rect x="19.519" y="45.2441" width="3.61644" height="1.9589" rx="0.979452" transform="rotate(-121.488 19.519 45.2441)" fill="#12D5E1"/>
<rect x="73.9988" y="29.8855" width="0.422941" height="5.58282" rx="0.21147" transform="rotate(45.5183 73.9988 29.8855)" fill="#C2B5B5"/>
<circle cx="75.3243" cy="28.8807" r="1.90323" transform="rotate(45.5183 75.3243 28.8807)" fill="#F00D0D"/>
<rect x="74.0833" y="27.1946" width="4.14482" height="0.761293" rx="0.380647" transform="rotate(45.5183 74.0833 27.1946)" fill="#FF6565"/>
<rect x="60.571" y="29.6849" width="3.61644" height="1.9589" rx="0.979452" transform="rotate(86.2753 60.571 29.6849)" fill="#E51AE9"/>
<path d="M50.3276 29.492C51.0176 35.3703 49.9842 40.3225 44.8079 40.9301C39.6317 41.5376 37.4797 36.9592 36.7898 31.0809C36.0998 25.2026 38.5711 20.0815 42.3095 19.6428C46.0478 19.204 49.6377 23.6136 50.3276 29.492Z" fill="black"/>
<ellipse cx="41.1372" cy="17.1028" rx="5.72603" ry="5.34931" fill="black"/>
<path d="M43.0959 12.3131L46.7124 10.2466L46.2603 15.0685L43.0959 12.3131Z" fill="black"/>
<path d="M40.0825 12.2673L36.3154 9.79456L36.5665 14.6165L40.0825 12.2673Z" fill="black"/>
<ellipse cx="38.6508" cy="16.4391" rx="2.33562" ry="2.42545" fill="#F7F2F2"/>
<circle cx="38.6507" cy="16.529" r="1.07798" fill="black"/>
<ellipse cx="43.7741" cy="16.4333" rx="2.33562" ry="2.42545" fill="#F7F2F2"/>
<circle cx="43.7743" cy="16.5231" r="1.07798" fill="black"/>
<mask id="mask0" style="mask-type:alpha" maskUnits="userSpaceOnUse" x="32" y="38" width="23" height="39">
<path d="M40.3083 74.589L32.8494 73.9863V38.9521H54.322V73.0822L46.2603 75.1918V76.2466L43.0959 75.9452H40.3083V74.589Z" fill="#CBBFBF"/>
</mask>
<g mask="url(#mask0)">
<path d="M40.9109 58.9328C40.9109 57.3017 42.2332 55.9794 43.8643 55.9794H44.1506C45.9399 55.9794 47.3903 57.4299 47.3903 59.2191V60.7712C47.3903 62.2026 46.23 63.363 44.7986 63.363V63.363C42.6515 63.363 40.9109 61.6224 40.9109 59.4753V58.9328Z" fill="#6B2878"/>
<rect x="41.438" y="61.4041" width="4.9726" height="18.2329" rx="2.4863" fill="#6B2878"/>
<path d="M43.8492 39.0274C44.9793 44.226 46.5615 50.4794 47.8423 55.9041C49.1232 61.3287 43.8557 59.2945 40.6848 58.9931" stroke="black" stroke-width="10" stroke-linecap="round"/>
<path d="M46.3977 59.5781C46.8432 59.1964 47.4886 59.1586 47.9756 59.4857V59.4857C48.5889 59.8976 48.7387 60.7358 48.3061 61.3346L47.2825 62.7514C46.7347 63.5096 45.6373 63.5945 44.9794 62.9297V62.9297C44.3613 62.305 44.4032 61.2872 45.0705 60.7154L46.3977 59.5781Z" fill="#6B2878"/>
<rect x="42.4929" y="54.774" width="1.50685" height="5.12329" rx="0.753425" fill="#6B2878"/>
<rect x="40.8357" y="55.3767" width="1.50685" height="4.06849" rx="0.753425" fill="#6B2878"/>
<rect x="44.1504" y="54.6232" width="1.50685" height="5.72603" rx="0.753425" fill="#6B2878"/>
<rect x="45.8081" y="55.226" width="1.50685" height="4.21918" rx="0.753425" fill="#6B2878"/>
<path d="M45.6101 58.1257C44.9705 57.6712 44.8203 56.7843 45.2747 56.1446V56.1446C45.3986 55.9702 45.6405 55.9292 45.815 56.0531L47.7103 57.3996C48.1173 57.6887 48.2129 58.2532 47.9237 58.6602V58.6602C47.6346 59.0673 47.0701 59.1629 46.6631 58.8737L45.6101 58.1257Z" fill="#6B2878"/>
<path d="M46.4273 58.352C46.3986 57.8499 46.7652 57.412 47.2646 57.3522V57.3522C47.7714 57.2914 48.2361 57.6412 48.3178 58.1451L48.6278 60.0558C48.7296 60.683 48.2567 61.2566 47.6216 61.2765V61.2765C47.0512 61.2943 46.5704 60.8543 46.5378 60.2845L46.4273 58.352Z" fill="#6B2878"/>
</g>
<defs>
<filter id="filter0_i" x="34.0544" y="44.1507" width="16.1233" height="22.4521" filterUnits="userSpaceOnUse" color-interpolation-filters="sRGB">
<feFlood flood-opacity="0" result="BackgroundImageFix"/>
<feBlend mode="normal" in="SourceGraphic" in2="BackgroundImageFix" result="shape"/>
<feColorMatrix in="SourceAlpha" type="matrix" values="0 0 0 0 0 0 0 0 0 0 0 0 0 0 0 0 0 0 127 0" result="hardAlpha"/>
<feOffset dx="6"/>
<feComposite in2="hardAlpha" operator="arithmetic" k2="-1" k3="1"/>
<feColorMatrix type="matrix" values="0 0 0 0 0 0 0 0 0 0 0 0 0 0 0 0 0 0 0.25 0"/>
<feBlend mode="normal" in2="shape" result="effect1_innerShadow"/>
</filter>
<filter id="filter1_d" x="37.0684" y="52.1369" width="7.27638" height="3.76712" filterUnits="userSpaceOnUse" color-interpolation-filters="sRGB">
<feFlood flood-opacity="0" result="BackgroundImageFix"/>
<feColorMatrix in="SourceAlpha" type="matrix" values="0 0 0 0 0 0 0 0 0 0 0 0 0 0 0 0 0 0 127 0" result="hardAlpha"/>
<feOffset dx="4"/>
<feColorMatrix type="matrix" values="0 0 0 0 0 0 0 0 0 0 0 0 0 0 0 0 0 0 0.25 0"/>
<feBlend mode="normal" in2="BackgroundImageFix" result="effect1_dropShadow"/>
<feBlend mode="normal" in="SourceGraphic" in2="effect1_dropShadow" result="shape"/>
</filter>
<filter id="filter2_d" x="41.4355" y="52.1369" width="4.97677" height="3.76712" filterUnits="userSpaceOnUse" color-interpolation-filters="sRGB">
<feFlood flood-opacity="0" result="BackgroundImageFix"/>
<feColorMatrix in="SourceAlpha" type="matrix" values="0 0 0 0 0 0 0 0 0 0 0 0 0 0 0 0 0 0 127 0" result="hardAlpha"/>
<feOffset dx="4"/>
<feColorMatrix type="matrix" values="0 0 0 0 0 0 0 0 0 0 0 0 0 0 0 0 0 0 0.25 0"/>
<feBlend mode="normal" in2="BackgroundImageFix" result="effect1_dropShadow"/>
<feBlend mode="normal" in="SourceGraphic" in2="effect1_dropShadow" result="shape"/>
</filter>
<filter id="filter3_d" x="43.6648" y="52.1369" width="7.19823" height="3.76712" filterUnits="userSpaceOnUse" color-interpolation-filters="sRGB">
<feFlood flood-opacity="0" result="BackgroundImageFix"/>
<feColorMatrix in="SourceAlpha" type="matrix" values="0 0 0 0 0 0 0 0 0 0 0 0 0 0 0 0 0 0 127 0" result="hardAlpha"/>
<feOffset dx="4"/>
<feColorMatrix type="matrix" values="0 0 0 0 0 0 0 0 0 0 0 0 0 0 0 0 0 0 0.25 0"/>
<feBlend mode="normal" in2="BackgroundImageFix" result="effect1_dropShadow"/>
<feBlend mode="normal" in="SourceGraphic" in2="effect1_dropShadow" result="shape"/>
</filter>
</defs>
</svg>
